<?xml version="1.0" encoding="UTF-8" standalone="no"?>
<!-- Created with Inkscape (http://www.inkscape.org/) -->

<svg
   xmlns:dc="http://purl.org/dc/elements/1.1/"
   xmlns:cc="http://creativecommons.org/ns#"
   xmlns:rdf="http://www.w3.org/1999/02/22-rdf-syntax-ns#"
   xmlns:svg="http://www.w3.org/2000/svg"
   xmlns="http://www.w3.org/2000/svg"
   xmlns:sodipodi="http://sodipodi.sourceforge.net/DTD/sodipodi-0.dtd"
   xmlns:inkscape="http://www.inkscape.org/namespaces/inkscape"
   width="27.890223mm"
   height="27.206697mm"
   viewBox="0 0 27.890223 27.206697"
   version="1.1"
   id="svg8"
   inkscape:version="0.92.2 5c3e80d, 2017-08-06"
   sodipodi:docname="moon.svg">
  <defs
     id="defs2" />
  <sodipodi:namedview
     id="base"
     pagecolor="#ffffff"
     bordercolor="#666666"
     borderopacity="1.0"
     inkscape:pageopacity="0.0"
     inkscape:pageshadow="2"
     inkscape:zoom="4.6980499"
     inkscape:cx="80.714549"
     inkscape:cy="56.369465"
     inkscape:document-units="mm"
     inkscape:current-layer="layer1"
     showgrid="false"
     inkscape:window-width="1410"
     inkscape:window-height="886"
     inkscape:window-x="301"
     inkscape:window-y="71"
     inkscape:window-maximized="0" />
  <metadata
     id="metadata5">
    <rdf:RDF>
      <cc:Work
         rdf:about="">
        <dc:format>image/svg+xml</dc:format>
        <dc:type
           rdf:resource="http://purl.org/dc/dcmitype/StillImage" />
        <dc:title></dc:title>
      </cc:Work>
    </rdf:RDF>
  </metadata>
  <g
     inkscape:label="Layer 1"
     inkscape:groupmode="layer"
     id="layer1"
     transform="translate(-80.048171,-122.89077)">
    <path
       style="opacity:1;vector-effect:none;fill:#000000;fill-opacity:1;stroke:#800080;stroke-width:1.33333337;stroke-linecap:butt;stroke-linejoin:round;stroke-miterlimit:4;stroke-dasharray:none;stroke-dashoffset:0;stroke-opacity:1;paint-order:markers fill stroke"
       d="m 328.84701,465.68463 c -4.30698,-2.69053 -12.00073,4.83438 -17.33124,13.64913 -5.33051,8.81476 -8.29779,19.05862 -8.30483,29.74436 7.3e-4,31.78596 25.76872,57.55308 57.55468,57.55274 10.23868,-0.0118 20.08868,-2.74313 28.66545,-7.6845 4.28838,-2.47068 8.25845,-5.49386 11.79964,-9.00583 3.54118,-3.51197 7.44131,-6.23251 5.58261,-9.37813 -1.9593,-2.06048 -4.84124,1.27012 -9.3348,2.38441 -4.49356,1.11429 -9.12156,1.68641 -13.78516,1.69186 -31.78596,3.5e-4 -57.55396,-25.76677 -57.55469,-57.55273 0.0202,-10.16572 6.49294,-18.61274 2.70834,-21.40131 z"
       transform="scale(0.26458333)"
       id="path11"
       inkscape:connector-curvature="0"
       sodipodi:nodetypes="csccssccccc" />
  </g>
</svg>
